<svg width="24" height="24" viewBox="0 0 24 24" fill="none" xmlns="http://www.w3.org/2000/svg">
<path d="M17.9936 3.99854H5.99784C4.89365 3.99854 3.99854 4.89365 3.99854 5.99784V17.9936C3.99854 19.0978 4.89365 19.9929 5.99784 19.9929H17.9936C19.0978 19.9929 19.9929 19.0978 19.9929 17.9936V5.99784C19.9929 4.89365 19.0978 3.99854 17.9936 3.99854Z" stroke="#9B59B6" stroke-width="1.9993" stroke-linecap="round" stroke-linejoin="round"/>
<path d="M13.9951 8.99683H9.99648C9.44438 8.99683 8.99683 9.44438 8.99683 9.99648V13.9951C8.99683 14.5472 9.44438 14.9947 9.99648 14.9947H13.9951C14.5472 14.9947 14.9947 14.5472 14.9947 13.9951V9.99648C14.9947 9.44438 14.5472 8.99683 13.9951 8.99683Z" stroke="#9B59B6" stroke-width="1.9993" stroke-linecap="round" stroke-linejoin="round"/>
<path d="M14.9946 1.99927V3.99927" stroke="#9B59B6" stroke-width="1.9993" stroke-linecap="round" stroke-linejoin="round"/>
<path d="M14.9946 19.9929V21.9929" stroke="#9B59B6" stroke-width="1.9993" stroke-linecap="round" stroke-linejoin="round"/>
<path d="M1.99927 14.9946H3.99927" stroke="#9B59B6" stroke-width="1.9993" stroke-linecap="round" stroke-linejoin="round"/>
<path d="M1.99927 8.99683H3.99927" stroke="#9B59B6" stroke-width="1.9993" stroke-linecap="round" stroke-linejoin="round"/>
<path d="M19.9929 14.9946H21.9929" stroke="#9B59B6" stroke-width="1.9993" stroke-linecap="round" stroke-linejoin="round"/>
<path d="M19.9929 8.99683H21.9929" stroke="#9B59B6" stroke-width="1.9993" stroke-linecap="round" stroke-linejoin="round"/>
<path d="M8.99683 1.99927V3.99927" stroke="#9B59B6" stroke-width="1.9993" stroke-linecap="round" stroke-linejoin="round"/>
<path d="M8.99683 19.9929V21.9929" stroke="#9B59B6" stroke-width="1.9993" stroke-linecap="round" stroke-linejoin="round"/>
</svg>
