<svg width="24" height="24" viewBox="0 0 24 24" fill="none" xmlns="http://www.w3.org/2000/svg">
<path d="M10.9962 19.993C9.24085 19.9983 7.54764 19.3437 6.25236 18.159C4.95708 16.9744 4.15434 15.3461 4.00336 13.5973C3.85238 11.8485 4.36419 10.1068 5.43727 8.71766C6.51036 7.32852 8.06633 6.39343 9.7966 6.09783C15.4946 4.99822 16.9941 4.4784 18.9934 1.99927C19.993 3.99857 20.9927 6.1778 20.9927 9.99647C20.9927 15.4945 16.2144 19.993 10.9962 19.993Z" stroke="#1E8449" stroke-width="1.9993" stroke-linecap="round" stroke-linejoin="round"/>
<path d="M1.99933 20.9927C1.99933 17.9937 3.84868 15.6346 7.07755 14.9948C9.4967 14.515 11.9958 12.9955 12.9955 11.9958" stroke="#1E8449" stroke-width="1.9993" stroke-linecap="round" stroke-linejoin="round"/>
</svg>
