<svg width="20" height="20" viewBox="0 0 20 20" fill="none" xmlns="http://www.w3.org/2000/svg">
<path d="M8.55365 17.4939C8.69988 17.7472 8.91021 17.9575 9.16347 18.1037C9.41674 18.2499 9.70403 18.3269 9.99648 18.3269C10.2889 18.3269 10.5762 18.2499 10.8295 18.1037C11.0828 17.9575 11.2931 17.7472 11.4393 17.4939" stroke="white" stroke-width="1.66608" stroke-linecap="round" stroke-linejoin="round"/>
<path d="M2.7174 12.7671C2.60858 12.8864 2.53676 13.0347 2.51069 13.1941C2.48462 13.3534 2.50541 13.5169 2.57054 13.6646C2.63568 13.8124 2.74234 13.938 2.87756 14.0262C3.01278 14.1145 3.17073 14.1615 3.33219 14.1616H16.6609C16.8223 14.1617 16.9803 14.1148 17.1156 14.0268C17.2509 13.9387 17.3577 13.8132 17.423 13.6656C17.4883 13.5179 17.5093 13.3545 17.4834 13.1951C17.4576 13.0358 17.386 12.8874 17.2773 12.768C16.1694 11.6259 14.9948 10.4121 14.9948 6.66427C14.9948 5.33865 14.4682 4.06732 13.5308 3.12997C12.5935 2.19262 11.3221 1.66602 9.99652 1.66602C8.6709 1.66602 7.39958 2.19262 6.46223 3.12997C5.52487 4.06732 4.99827 5.33865 4.99827 6.66427C4.99827 10.4121 3.82285 11.6259 2.7174 12.7671Z" stroke="white" stroke-width="1.66608" stroke-linecap="round" stroke-linejoin="round"/>
</svg>
